<svg id="Calque_1" data-name="Calque 1" xmlns="http://www.w3.org/2000/svg" viewBox="0 0 99.9 97.4"><defs><style>.cls-1{fill:none;}.cls-2{fill:#fff;}</style></defs><title>Assurances auto et 2 roues</title><path class="cls-1" d="M50.66,24.13l-.71,0h-.18l-.61,0C46,27.65,43.21,34.43,43,44.6a9.54,9.54,0,0,1,13.75-.17C56.59,34.35,53.77,27.62,50.66,24.13Z"/><path class="cls-1" d="M46.46,24.35a26.23,26.23,0,0,0-15.37,7.7,26.55,26.55,0,0,0-7.3,14.52,12.3,12.3,0,0,1,10.14-5A9.65,9.65,0,0,1,41,44.75C41.15,34.07,44,27.79,46.46,24.35Z"/><path class="cls-1" d="M68.56,31.8a26.23,26.23,0,0,0-15.2-7.46c2.45,3.45,5.34,9.78,5.45,20.56A9.66,9.66,0,0,1,66,41.59c5.15,0,8.17,2.12,10,4.34A26.54,26.54,0,0,0,68.56,31.8Z"/><path class="cls-2" d="M78.4,50.86a1,1,0,0,0,0-.24v0A28.59,28.59,0,0,0,70,30.39a28.2,28.2,0,0,0-18.42-8.22c-.23-.23-.44-.43-.64-.6v-1.1a1,1,0,0,0-2,0v1.1c-.19.17-.41.37-.64.61a28.21,28.21,0,0,0-18.62,8.49A28.59,28.59,0,0,0,21.45,51h0a1,1,0,0,0,.05.25,1,1,0,0,0,0,.13,17.63,17.63,0,0,0,.22.31l.09.06a1,1,0,0,0,.24.15h0a1,1,0,0,0,.36.07h0a1,1,0,0,0,.35-.07l.1,0a1,1,0,0,0,.21-.14l.08-.07a1,1,0,0,0,.16-.24l0-.06h0c1.12-2.9,4-7.76,10.54-7.76A7.64,7.64,0,0,1,41,48.45a1,1,0,0,0,.93.64h0a1,1,0,0,0,.93-.64A7.66,7.66,0,0,1,50,43.59a7.53,7.53,0,0,1,6.8,4.21h0a1,1,0,0,0,.43.84h0a.46.46,0,0,0,.22.23,1,1,0,0,0,.19.12h0a.94.94,0,0,0,.15,0,.66.66,0,0,0,.44,0l.14,0h0a1,1,0,0,0,.2-.12,1,1,0,0,0,.13-.09,1,1,0,0,0,.1-.14,1,1,0,0,0,.12-.19v0A7.66,7.66,0,0,1,66,43.59c6.86,0,9.26,4.21,10.48,7.38v0l0,.08a1,1,0,0,0,.15.22l.08.07a1,1,0,0,0,.21.14l.09,0a1,1,0,0,0,.35.07h0a1,1,0,0,0,.32-.06h0a1,1,0,0,0,.19-.12,1,1,0,0,0,.13-.09,7.83,7.83,0,0,0,.21-.31A1,1,0,0,0,78.4,50.86ZM33.92,41.59a12.3,12.3,0,0,0-10.14,5,26.55,26.55,0,0,1,7.3-14.52,26.23,26.23,0,0,1,15.37-7.7C44,27.79,41.15,34.07,41,44.75A9.65,9.65,0,0,0,33.92,41.59Zm16.05,0a9.63,9.63,0,0,0-6.94,3c.17-10.18,3-17,6.13-20.47l.61,0H50l.71,0c3.11,3.49,5.92,10.22,6.13,20.3A9.66,9.66,0,0,0,50,41.59Zm16.06,0a9.66,9.66,0,0,0-7.23,3.31c-.1-10.78-3-17.11-5.45-20.56a26.23,26.23,0,0,1,15.2,7.46A26.54,26.54,0,0,1,76,45.93C74.2,43.71,71.18,41.59,66,41.59Z"/><path class="cls-1" d="M40.28,71.87a3,3,0,0,0-5.67,0,2.81,2.81,0,0,0,0,2,3,3,0,0,0,5.8-1.06A3,3,0,0,0,40.28,71.87Z"/><path class="cls-1" d="M63.24,71.87a3,3,0,0,0-5.79,1.07,3,3,0,0,0,.16.93,3,3,0,0,0,5.68,0,2.81,2.81,0,0,0,0-2Z"/><path class="cls-1" d="M71,64.47h-6a1,1,0,0,1-1-1c0-2.54-2.41-4.6-5.37-4.6H39.2c-3,0-5.37,2.06-5.37,4.6a1,1,0,0,1-1,1h-4c-.41,0-.69.25-.69.48v6.43c0,.23.28.48.69.48h3.67a5,5,0,0,1,9.81,0H55.57a5,5,0,0,1,9.76,0H71c.41,0,.69-.25.69-.48V65C71.71,64.73,71.43,64.47,71,64.47Z"/><path class="cls-2" d="M71,62.47H66a7.18,7.18,0,0,0-7.29-5.6H39.2a7.18,7.18,0,0,0-7.29,5.6h-3A2.59,2.59,0,0,0,26.18,65v6.43a2.59,2.59,0,0,0,2.69,2.48h3.69a5,5,0,0,0,9.77,0H55.54a5,5,0,0,0,9.81,0H71a2.59,2.59,0,0,0,2.69-2.48V65A2.59,2.59,0,0,0,71,62.47ZM37.45,75.82a3,3,0,0,1-3-3,3,3,0,0,1,.17-.94,3,3,0,0,1,5.67,0,2.81,2.81,0,0,1,0,2A3,3,0,0,1,37.45,75.82Zm23,.13a3,3,0,0,1-2.84-2.07,2.82,2.82,0,0,1,0-2,3,3,0,0,1,5.79,1.07,3,3,0,0,1-.16.93A3,3,0,0,1,60.45,75.94Zm11.27-4.55c0,.23-.28.48-.69.48h-5.7a5,5,0,0,0-9.76,0H42.35a5,5,0,0,0-9.81,0H28.87c-.41,0-.69-.25-.69-.48V65c0-.23.28-.48.69-.48h4a1,1,0,0,0,1-1c0-2.54,2.41-4.6,5.37-4.6H58.7c3,0,5.37,2.06,5.37,4.6a1,1,0,0,0,1,1h6c.41,0,.69.25.69.48Z"/></svg>