<svg id="Calque_1" data-name="Calque 1" xmlns="http://www.w3.org/2000/svg" viewBox="0 0 99.9 97.4"><defs><style>.cls-1{fill:none;}.cls-2{fill:#fff;}</style></defs><title>Crédit conso</title><path class="cls-1" d="M45.74,37.38H62.82a.57.57,0,0,0,.57-.57v-6a.57.57,0,0,0-.57-.57H37.59a.57.57,0,0,0-.57.57v6a.57.57,0,0,0,.57.57h8.15Zm12.8-5.18H61.2v3.51H58.55a1.76,1.76,0,0,1,0-3.51Zm-19-.2H42.2a1.76,1.76,0,1,1,0,3.51H39.54Z"/><path class="cls-1" d="M42.24,39.88a1.5,1.5,0,0,0,3,0v-1.5h-3Z"/><polygon class="cls-1" points="56.9 23.72 43.52 23.72 41.06 29.23 59.35 29.23 56.9 23.72"/><path class="cls-1" d="M58.28,39.88v-1.5h-3v1.5a1.5,1.5,0,0,0,3,0Z"/><path class="cls-2" d="M27.33,56.58A3.41,3.41,0,0,1,26.12,54V39.59a1.47,1.47,0,1,1,2.94,0v8.13a1,1,0,0,0,2,0V39.59a3.47,3.47,0,1,0-6.94,0V54A5.41,5.41,0,0,0,26,58.11l8,6.71v6.7a1,1,0,0,0,2,0V64.35a1,1,0,0,0-.36-.76Z"/><path class="cls-2" d="M40.53,52.95a1,1,0,0,0-.14-.23L37,48.62a3,3,0,0,0-5,3.37l3.17,5.68a1,1,0,1,0,1.75-1L33.82,51a1,1,0,0,1,1.66-1.13l3.28,4,3.36,7.68V73.68a1,1,0,0,0,2,0V61.35a1,1,0,0,0-.08-.4Z"/><path class="cls-2" d="M72.31,36.12a3.47,3.47,0,0,0-3.47,3.47v8.13a1,1,0,0,0,2,0V39.59a1.47,1.47,0,0,1,2.94,0V54a3.42,3.42,0,0,1-1.22,2.62l-8.31,7a1,1,0,0,0-.36.76v7.16a1,1,0,0,0,2,0v-6.7l8-6.71A5.41,5.41,0,0,0,75.78,54V39.59A3.47,3.47,0,0,0,72.31,36.12Z"/><path class="cls-2" d="M64.66,57.67,67.83,52a3,3,0,0,0-5-3.37l-3.36,4.1a1,1,0,0,0-.14.23l-3.5,8a1,1,0,0,0-.08.4V73.68a1,1,0,0,0,2,0V61.56l3.36-7.68,3.28-4A1,1,0,0,1,66.08,51L62.91,56.7a1,1,0,1,0,1.75,1Z"/><path class="cls-2" d="M59.28,39.88v-1.5h3.54a1.57,1.57,0,0,0,1.57-1.57v-6a1.57,1.57,0,0,0-1.57-1.57H60.45L57.68,23a.5.5,0,0,0-.46-.3h-14a.5.5,0,0,0-.46.3L40,29.23H37.59A1.57,1.57,0,0,0,36,30.8v6a1.57,1.57,0,0,0,1.57,1.57h3.65v1.5a2.5,2.5,0,0,0,5,0v-1.5h8v1.5a2.5,2.5,0,0,0,5,0ZM43.52,23.72H56.9l2.46,5.51H41.06ZM37,36.81v-6a.57.57,0,0,1,.57-.57H62.82a.57.57,0,0,1,.57.57v6a.57.57,0,0,1-.57.57H37.59A.57.57,0,0,1,37,36.81Zm8.22,3.07a1.5,1.5,0,0,1-3,0v-1.5h3Zm10,0v-1.5h3v1.5a1.5,1.5,0,0,1-3,0Z"/><path class="cls-1" d="M43,33.76A.76.76,0,0,0,42.2,33H40.54v1.51H42.2A.76.76,0,0,0,43,33.76Z"/><path class="cls-2" d="M44,33.76A1.76,1.76,0,0,0,42.2,32H39.54v3.51H42.2A1.76,1.76,0,0,0,44,33.76ZM40.54,33H42.2a.76.76,0,1,1,0,1.51H40.54Z"/><path class="cls-1" d="M58.55,34.71H60.2V33.2H58.55a.76.76,0,0,0,0,1.51Z"/><path class="cls-2" d="M58.55,35.71H61.2V32.2H58.55a1.76,1.76,0,0,0,0,3.51Zm0-2.51H60.2v1.51H58.55a.76.76,0,0,1,0-1.51Z"/></svg>