<svg id="Calque_1" data-name="Calque 1" xmlns="http://www.w3.org/2000/svg" viewBox="0 0 99.9 97.4"><defs><style>.cls-1{fill:#fff;}</style></defs><title>Crédit  Immobilier</title><path class="cls-1" d="M27.33,57.63A3.42,3.42,0,0,1,26.12,55V40.64a1.47,1.47,0,1,1,2.94,0v8.13a1,1,0,0,0,2,0V40.64a3.47,3.47,0,1,0-6.94,0V55A5.41,5.41,0,0,0,26,59.16l8,6.71v6.7a1,1,0,0,0,2,0V65.4a1,1,0,0,0-.36-.76Z"/><path class="cls-1" d="M40.53,54a1,1,0,0,0-.14-.23L37,49.67a3,3,0,0,0-5,3.37l3.17,5.68a1,1,0,1,0,1.75-1l-3.17-5.68a1,1,0,0,1,1.66-1.13l3.28,4,3.36,7.68V74.74a1,1,0,0,0,2,0V62.4A1,1,0,0,0,44,62Z"/><path class="cls-1" d="M72.31,37.17a3.47,3.47,0,0,0-3.47,3.47v8.13a1,1,0,0,0,2,0V40.64a1.47,1.47,0,0,1,2.94,0V55a3.42,3.42,0,0,1-1.22,2.62l-8.31,7a1,1,0,0,0-.36.76v7.16a1,1,0,0,0,2,0v-6.7l8-6.71A5.42,5.42,0,0,0,75.78,55V40.64A3.47,3.47,0,0,0,72.31,37.17Z"/><path class="cls-1" d="M64.66,58.73,67.83,53a3,3,0,0,0-5-3.37l-3.36,4.1a1,1,0,0,0-.14.23l-3.5,8a1,1,0,0,0-.08.4V74.74a1,1,0,0,0,2,0V62.61l3.36-7.68,3.28-4a1,1,0,0,1,1.66,1.13l-3.17,5.68a1,1,0,1,0,1.75,1Z"/><path class="cls-1" d="M39.8,32.22l2.07-1.87V43.71a.5.5,0,0,0,1,0V29.45l7.34-6.62,7.34,6.62V43.71a.5.5,0,0,0,1,0V30.35l2.07,1.87a.5.5,0,1,0,.67-.74L50.54,21.79a.5.5,0,0,0-.67,0L39.13,31.48a.5.5,0,0,0,.67.74Z"/><path class="cls-1" d="M53.33,33.59H47.08a.5.5,0,0,0-.5.5v9.63a.5.5,0,0,0,1,0V34.59h5.25v9.13a.5.5,0,0,0,1,0V34.09A.5.5,0,0,0,53.33,33.59Z"/></svg>