<svg id="Calque_1" data-name="Calque 1" xmlns="http://www.w3.org/2000/svg" viewBox="0 0 99.9 97.4"><defs><style>.cls-1{fill:none;}.cls-2{fill:#fff;}</style></defs><title>Assurances Habitation</title><path class="cls-1" d="M46.46,22.32A26.23,26.23,0,0,0,31.09,30a26.55,26.55,0,0,0-7.3,14.52,12.3,12.3,0,0,1,10.14-5A9.66,9.66,0,0,1,41,42.72C41.15,32,44,25.76,46.46,22.32Z"/><path class="cls-1" d="M50.66,22.1h-.89l-.61,0C46,25.62,43.21,32.4,43,42.58a9.54,9.54,0,0,1,13.75-.17C56.59,32.32,53.77,25.59,50.66,22.1Z"/><path class="cls-1" d="M68.56,29.78a26.17,26.17,0,0,0-15.21-7.48c2.46,3.44,5.36,9.78,5.46,20.58A9.66,9.66,0,0,1,66,39.56c5.15,0,8.17,2.12,10,4.35A26.54,26.54,0,0,0,68.56,29.78Z"/><path class="cls-2" d="M50.62,49.5a1,1,0,0,0-1.34,0L34.95,62.41a1,1,0,1,0,1.34,1.49l2.2-2V79a1,1,0,0,0,2,0V60.11l9.46-8.52,9.46,8.52V79a1,1,0,0,0,2,0V61.91l2.2,2a1,1,0,0,0,1.34-1.49Z"/><path class="cls-2" d="M54.12,65.14H45.78a1,1,0,0,0-1,1V79a1,1,0,0,0,2,0V67.14h6.33V79a1,1,0,0,0,2,0V66.14A1,1,0,0,0,54.12,65.14Z"/><path class="cls-2" d="M78.4,48.84a1,1,0,0,0,0-.24v0A28.59,28.59,0,0,0,70,28.36a28.2,28.2,0,0,0-18.42-8.22c-.23-.23-.44-.43-.64-.6v-1.1a1,1,0,1,0-2,0v1.1c-.19.17-.41.37-.64.61a28.21,28.21,0,0,0-18.62,8.49A28.59,28.59,0,0,0,21.45,49h0a1,1,0,0,0,.05.25,1,1,0,0,0,0,.14,17.77,17.77,0,0,0,.22.31l.1.07a1,1,0,0,0,.23.15h0a1,1,0,0,0,.36.07h0a1,1,0,0,0,.35-.07l.1,0a1,1,0,0,0,.21-.14l.08-.07a1,1,0,0,0,.16-.24l0-.06h0c1.12-2.9,4-7.76,10.54-7.76A7.54,7.54,0,0,1,41,46.43a1,1,0,0,0,.93.64h0a1,1,0,0,0,.93-.64,7.59,7.59,0,0,1,13.88-.65h0a1,1,0,0,0,.43.84h0a1,1,0,0,0,.09.13,1,1,0,0,0,.13.09,1,1,0,0,0,.2.12h0a.93.93,0,0,0,.14,0,.65.65,0,0,0,.43,0,1,1,0,0,0,.15,0h0a1,1,0,0,0,.18-.11.47.47,0,0,0,.23-.23,1,1,0,0,0,.13-.2v0A7.66,7.66,0,0,1,66,41.56c6.85,0,9.26,4.21,10.48,7.38v0l0,.07a1,1,0,0,0,.15.22l.08.07a1,1,0,0,0,.21.14l.1,0a1,1,0,0,0,.35.07h0a1,1,0,0,0,.32-.06h0a1,1,0,0,0,.19-.12,1,1,0,0,0,.13-.09,7.83,7.83,0,0,0,.21-.31A1,1,0,0,0,78.4,48.84ZM33.92,39.56a12.3,12.3,0,0,0-10.14,5A26.55,26.55,0,0,1,31.09,30a26.23,26.23,0,0,1,15.37-7.7C44,25.76,41.15,32,41,42.72A9.66,9.66,0,0,0,33.92,39.56Zm16.06,0a9.63,9.63,0,0,0-6.94,3c.17-10.18,3-17,6.13-20.47l.61,0h.89c3.11,3.49,5.93,10.22,6.13,20.31A9.66,9.66,0,0,0,50,39.56Zm16.06,0a9.66,9.66,0,0,0-7.23,3.31c-.1-10.8-3-17.13-5.46-20.58a26.17,26.17,0,0,1,15.21,7.48A26.54,26.54,0,0,1,76,43.91C74.2,41.69,71.18,39.56,66,39.56Z"/></svg>